<?xml version="1.0" encoding="UTF-8"?><svg id="Layer_1" xmlns="http://www.w3.org/2000/svg" viewBox="0 0 197.45 22.22"><defs><style>.cls-1,.cls-2{fill:#242b40;}.cls-2{fill-rule:evenodd;}</style></defs><path class="cls-1" d="M197.45,20.67c0,.87-.68,1.55-1.57,1.55s-1.58-.68-1.58-1.55,.7-1.53,1.58-1.53c.89,0,1.57,.68,1.57,1.53Zm-2.76,0c0,.68,.51,1.23,1.2,1.23s1.17-.54,1.17-1.22-.5-1.24-1.18-1.24-1.19,.55-1.19,1.23h0Zm.95,.8h-.36v-1.53c.19-.03,.39-.05,.59-.05,.29,0,.42,.05,.53,.11,.1,.08,.15,.21,.15,.34,0,.17-.13,.3-.32,.36v.02c.15,.06,.23,.17,.28,.37,.05,.23,.07,.33,.11,.38h-.38c-.05-.06-.07-.2-.12-.37-.03-.17-.12-.24-.32-.24h-.17v.62Zm0-.87h.17c.2,0,.36-.07,.36-.22,0-.14-.1-.23-.33-.23-.07,0-.13,0-.2,.02v.44Z"/><g><rect class="cls-1" x="72.84" y=".19" width="13.56" height="2.07"/><rect class="cls-1" x="72.84" y="9.98" width="13.56" height="2.07"/><rect class="cls-1" x="72.84" y="19.97" width="13.56" height="2.07"/></g><g><polygon class="cls-2" points="19.87 22.01 19.87 .08 15.65 .08 9.95 11.94 4.22 .08 0 .08 0 22.01 4.28 22.01 4.28 9.23 8.5 17.54 11.4 17.54 15.59 9.23 15.59 22.01 19.87 22.01"/><path class="cls-2" d="M23.4,3.9h7.47c1.88,0,3.11,1.2,3.11,2.89s-1.23,2.9-3.11,2.9h-7.47v3.57h6.53l4.28,8.75h4.96l-4.9-9.46c2.12-.77,4.01-2.68,4.01-5.76C38.29,3.13,35.63,.08,31.17,.08h-7.77V3.9Z"/><rect class="cls-1" x="42.53" y=".08" width="4.18" height="21.93"/></g><g><path class="cls-1" d="M65.93,22.04L54.33,4.51V22.04h-2.33V.18h2.21l11.6,17.46V.18h2.33V22.04h-2.21Z"/><path class="cls-1" d="M99.39,2.27V22.04h-2.33V2.27h-6.32V.18h14.98V2.27h-6.32Z"/><path class="cls-1" d="M128.5,22.04h-2.18l-4.85-17.5-4.85,17.5h-2.18L108.86,.18h2.49l4.27,17.62L120.43,.18h2.09l4.82,17.62L131.6,.18h2.49l-5.59,21.85Z"/><path class="cls-1" d="M149.74,19.95c-1.47,1.47-3.41,2.27-5.59,2.27s-4.11-.8-5.59-2.27c-2.06-2.06-2.06-4.21-2.06-8.84s0-6.78,2.06-8.84c1.47-1.47,3.41-2.27,5.59-2.27s4.11,.8,5.59,2.27c2.06,2.06,2.06,4.21,2.06,8.84s0,6.78-2.06,8.84Zm-1.81-16.3c-.95-.98-2.33-1.57-3.78-1.57s-2.82,.58-3.78,1.57c-1.38,1.41-1.53,2.89-1.53,7.46s.15,6.05,1.53,7.46c.95,.98,2.33,1.57,3.78,1.57s2.82-.58,3.78-1.57c1.38-1.41,1.53-2.89,1.53-7.46s-.15-6.05-1.53-7.46Z"/><path class="cls-1" d="M169.04,22.04l-4.97-9.7h-5.25v9.7h-2.33V.18h8.38c3.81,0,6.48,2.3,6.48,6.08,0,3.19-1.93,5.28-4.76,5.86l5.19,9.91h-2.73Zm-4.39-19.77h-5.83V10.28h5.83c2.55,0,4.36-1.32,4.36-3.99s-1.81-4.02-4.36-4.02Z"/><path class="cls-1" d="M189.53,22.04l-6.66-11.63-4.6,5.52v6.11h-2.33V.18h2.33V12.74L188.45,.18h2.85l-6.88,8.44,7.86,13.41h-2.76Z"/></g></svg>