<svg width="162" height="26" viewBox="0 0 162 26" fill="none" xmlns="http://www.w3.org/2000/svg">
<g clip-path="url(#clip0_2004_1028)">
<path d="M49.2448 25.4609H44.3594C45.8532 17.2042 47.3411 8.97972 48.8345 0.725362H54.0789C55.0029 4.84003 55.9299 8.96831 56.8879 13.2345C57.6214 8.98352 58.3347 4.8496 59.0483 0.714172H63.8689C62.3966 8.98204 60.8883 17.2017 59.4058 25.4496H54.415C53.5059 20.8538 52.5973 16.2606 51.6892 11.6702L51.5764 11.6719C50.8013 16.2555 50.0263 20.8391 49.2448 25.4609Z" fill="#24135F"/>
<path d="M123.652 25.4592H118.887C118.808 24.9131 122.601 3.50584 123.266 0.729677H128.481C129.405 4.84126 130.331 8.9634 131.291 13.2344C132.025 8.97935 132.733 4.86966 133.447 0.727234H138.278C136.783 8.98802 135.291 17.2312 133.802 25.4568H128.818C127.913 20.8799 127.005 16.2913 126.095 11.6912C125.739 12.7785 125.615 13.9071 125.408 15.0189C125.192 16.1831 125.025 17.3559 124.827 18.5234C124.633 19.6705 124.422 20.815 124.227 21.9621C124.033 23.1077 123.85 24.2551 123.652 25.4592Z" fill="#24135F"/>
<path d="M150.295 16.1469H147.434V11.3339H156.334C155.594 15.4051 154.857 19.4584 154.111 23.5599C153.29 24.1322 152.392 24.5899 151.442 24.9199C149.392 25.6568 147.282 25.9608 145.111 25.6311C142.359 25.2129 140.538 23.6605 139.572 21.1362C138.968 19.5556 138.85 17.9137 138.914 16.2347C138.996 14.0326 139.394 11.8529 140.098 9.76C140.777 7.7329 141.697 5.81808 143.129 4.18563C144.504 2.61797 146.091 1.29707 148.173 0.724226C150.659 0.0405088 153.093 0.119489 155.381 1.44062C156.289 1.96047 157.058 2.68358 157.627 3.5508C157.584 3.61566 157.538 3.67832 157.489 3.73853C156.493 4.84971 155.497 5.95971 154.431 7.14719C154.143 6.83832 153.892 6.53313 153.604 6.26568C152.796 5.52457 151.733 5.10922 150.626 5.10258C149.52 5.09593 148.452 5.49848 147.635 6.22983C147.067 6.74752 146.678 7.39392 146.344 8.07108C145.517 9.74896 145.051 11.5358 144.702 13.355C144.432 14.7663 144.232 16.1882 144.308 17.6284C144.327 18.1666 144.406 18.7011 144.543 19.2224C144.914 20.5254 145.746 21.1515 147.122 21.2416C147.918 21.3057 148.717 21.1604 149.437 20.8206C149.711 19.3248 149.995 17.7775 150.295 16.1469Z" fill="#24135F"/>
<path d="M45.1819 2.82521C44.2048 4.14103 43.2333 5.44935 42.231 6.79912C42.0156 6.62133 41.824 6.4676 41.6373 6.30831C40.495 5.33362 39.1472 4.89458 37.6498 4.89398C36.3261 4.89345 35.1604 5.74854 34.8161 6.92185C34.5757 7.7409 34.8218 8.46727 35.5396 8.94402C35.8258 9.1223 36.1281 9.27436 36.4427 9.39828C37.513 9.85426 38.6136 10.2497 39.657 10.7576C41.5651 11.6865 42.6975 13.1993 42.8941 15.2954C43.0522 16.8547 42.8254 18.4283 42.2329 19.8837C40.9597 22.9867 38.6199 24.9433 35.3108 25.6877C31.7887 26.4802 28.5096 25.866 25.5952 23.6953C25.5284 23.6456 25.4687 23.5868 25.3525 23.4863L27.9516 19.0587C28.3571 19.323 28.7069 19.5515 29.0573 19.7792C30.3254 20.6035 31.7096 21.1089 33.2422 21.1045C33.8159 21.1064 34.3861 21.0182 34.9312 20.8433C36.624 20.2778 37.1864 18.8385 37.1288 17.4164C37.1017 16.7473 36.7196 16.23 36.1309 15.9073C35.5955 15.6138 35.0246 15.3809 34.4634 15.1342C33.6505 14.7768 32.8079 14.476 32.0216 14.0705C30.5313 13.3018 29.5405 12.1246 29.2444 10.4698C28.935 8.74032 29.1892 7.0589 29.9128 5.47202C31.2952 2.44064 33.6608 0.522476 37.0461 0.0810666C40.0294 -0.307923 42.7541 0.415702 44.9583 2.55894C45.0321 2.6307 45.0914 2.71664 45.1819 2.82521Z" fill="#24135F"/>
<path d="M63.1504 25.4364C64.6424 17.1879 66.1279 8.97561 67.6195 0.729858H80.196C79.6815 2.33466 79.1759 3.91197 78.6624 5.51386H71.824C71.548 7.04874 71.277 8.55607 70.9937 10.1312H76.7426C76.4453 11.7902 76.1619 13.3718 75.8737 14.9801H70.1588C69.8331 16.7984 69.5121 18.5908 69.178 20.4558H76.8204C76.5118 22.1577 76.2179 23.7781 75.9172 25.4364H63.1504Z" fill="#24135F"/>
<path d="M85.4553 20.6127H92.8209C92.2213 22.2554 91.6459 23.8321 91.0581 25.4425H79.4551C80.9487 17.1858 82.4387 8.9493 83.9251 0.732971H89.0413C87.8459 7.35994 86.6594 13.9376 85.4553 20.6127Z" fill="#24135F"/>
<path d="M106.158 25.4605H94.5596C96.0521 17.2075 97.5383 8.9898 99.0315 0.733582H104.145C102.951 7.36113 101.764 13.9505 100.567 20.5965H107.935C107.329 22.2544 106.75 23.8399 106.158 25.4605Z" fill="#24135F"/>
<path d="M26.2223 13.0121C21.9169 17.2169 17.6147 21.4185 13.3158 25.6169C12.9593 25.2864 12.5681 24.9238 12.1522 24.5382C12.3454 24.3936 12.534 24.2613 12.7128 24.1173C14.3926 22.7656 15.5474 21.1052 15.9469 18.9771C16.1443 17.9471 15.9729 16.8818 15.4618 15.9612C15.0584 15.2105 14.5386 14.5196 14.0751 13.7994C13.5892 13.0444 13.0598 12.3112 12.6369 11.5237C11.8765 10.1075 11.7542 8.58687 12.0923 7.03696C12.2543 6.29432 12.6513 5.65499 13.157 5.07466C13.9584 4.15502 14.9511 3.50344 15.9873 3.01556L26.2223 13.0121Z" fill="#005F83"/>
<path d="M13.3111 0.287689L14.3233 1.41784C13.9388 1.83703 13.5009 2.33111 13.0445 2.80832C12.2663 3.60581 11.6222 4.51935 11.1364 5.51479C10.206 7.45961 10.3374 9.34308 11.5081 11.1428C11.9514 11.8243 12.506 12.4358 12.9741 13.1031C13.4409 13.7685 13.9526 14.4247 14.2864 15.154C15.0391 16.7989 14.8545 18.4275 13.946 19.9838C13.382 20.95 11.9905 22.2664 10.6107 22.8695L0.333984 12.833L13.3111 0.287689Z" fill="#24135F"/>
<path d="M114.112 0.717163H119.287C117.793 8.97849 116.306 17.1989 114.814 25.4469H109.776C109.754 25.4358 109.734 25.4216 109.717 25.4049C109.706 25.3872 109.7 25.3665 109.7 25.3455C109.699 25.2424 109.705 25.1394 109.719 25.0371C111.179 16.9477 112.641 8.85869 114.112 0.717163Z" fill="#24135F"/>
<path d="M161.695 3.04401C161.684 3.52718 161.479 3.98655 161.124 4.32212C160.769 4.6577 160.293 4.8423 159.8 4.83573C158.756 4.83143 157.87 3.96364 157.896 2.9702C157.922 1.96409 158.825 1.15267 159.877 1.18943C160.121 1.19342 160.362 1.24465 160.585 1.34016C160.809 1.43567 161.011 1.57359 161.18 1.74597C161.349 1.91835 161.482 2.12178 161.57 2.34455C161.658 2.56733 161.701 2.80504 161.695 3.04401ZM159.775 1.62113C159.59 1.62468 159.407 1.66429 159.238 1.73766C159.069 1.81102 158.916 1.91668 158.789 2.04846C158.662 2.18023 158.563 2.3355 158.498 2.5052C158.432 2.6749 158.402 2.85564 158.409 3.03687C158.414 3.40405 158.567 3.75432 158.836 4.01077C159.104 4.26723 159.465 4.40891 159.84 4.40472C160.611 4.39532 161.213 3.75678 161.204 2.97771C161.196 2.33817 160.617 1.54553 159.775 1.62113Z" fill="#24135F"/>
<path d="M159.133 2.13092C159.402 2.11518 159.631 2.08471 159.86 2.09144C160.631 2.11416 160.788 2.41797 160.379 3.07103C160.438 3.15738 160.487 3.24943 160.527 3.34571C160.574 3.50332 160.596 3.66817 160.635 3.86106L160.253 3.94148C160.165 3.73389 160.086 3.54614 159.991 3.32184L159.573 3.23681C159.551 3.46973 159.533 3.67052 159.512 3.90027H159.133V2.13092Z" fill="#24135F"/>
</g>
<defs>
<clipPath id="clip0_2004_1028">
<rect width="162" height="26" fill="white"/>
</clipPath>
</defs>
</svg>
